<svg xmlns="http://www.w3.org/2000/svg" width="30" height="30" viewBox="0 0 30 30">
    <path data-name="사각형 3" style="fill:none" d="M0 0h30v30H0z"/>
    <path data-name="패스 67610" d="M79.007 323.1c-6.627 0-12 4.21-12 9.408 0 3.343 2.226 6.27 5.568 7.945l-1.131 4.19a.34.34 0 0 0 .539.377l4.863-3.26a15.271 15.271 0 0 0 2.161.157c6.626 0 12-4.211 12-9.409s-5.374-9.408-12-9.408" transform="translate(-64.007 -318.1)" style="stroke:transparent;stroke-miterlimit:10;fill:#3b1e1e"/>
    <path data-name="패스 67611" d="M71.747 332.705h-1.306a.859.859 0 0 1-.464-.124.5.5 0 0 1-.239-.347 1.503 1.503 0 0 1-.02-.133.521.521 0 0 1 .205-.44.815.815 0 0 1 .514-.16h3.993a.858.858 0 0 1 .463.122.513.513 0 0 1 .242.348.747.747 0 0 1 .009.129.541.541 0 0 1-.2.448.81.81 0 0 1-.51.156h-1.307v4.467a.714.714 0 0 1-.189.516.664.664 0 0 1-.506.2.706.706 0 0 1-.441-.14.648.648 0 0 1-.233-.389.716.716 0 0 1-.013-.182z" transform="translate(-64.535 -319.788)" style="fill:#fac800;stroke:transparent;stroke-miterlimit:10"/>
    <path data-name="패스 67612" d="M76.409 331.8a.612.612 0 0 1 .252-.335.8.8 0 0 1 .423-.1h.332a.873.873 0 0 1 .451.109.724.724 0 0 1 .286.415l1.668 4.8a2.745 2.745 0 0 1 .113.382 1.6 1.6 0 0 1 .025.165.6.6 0 0 1-.2.444.629.629 0 0 1-.459.181.59.59 0 0 1-.621-.391l-.357-1.045H76.1l-.359 1.045a.576.576 0 0 1-.618.391.642.642 0 0 1-.408-.125.571.571 0 0 1-.212-.354.687.687 0 0 1-.013-.146.76.76 0 0 1 .038-.252 3.056 3.056 0 0 1 .093-.295zm.836 1.114h-.018l-.815 2.518h1.618z" transform="translate(-65.466 -319.759)" style="fill:#fac800;stroke:transparent;stroke-miterlimit:10"/>
    <path data-name="패스 67613" d="M81.548 332.073a.716.716 0 0 1 .189-.517.668.668 0 0 1 .506-.2.69.69 0 0 1 .443.143.656.656 0 0 1 .231.388.686.686 0 0 1 .011.181v4.469h2.308a.841.841 0 0 1 .467.121.52.52 0 0 1 .234.349.785.785 0 0 1 .02.131.526.526 0 0 1-.2.443.826.826 0 0 1-.514.157h-2.886a.909.909 0 0 1-.519-.132.624.624 0 0 1-.262-.423 1.953 1.953 0 0 1-.03-.28z" transform="translate(-66.841 -319.759)" style="fill:#fac800;stroke:transparent;stroke-miterlimit:10"/>
    <path data-name="패스 67614" d="M87.2 332.073a.723.723 0 0 1 .188-.517.669.669 0 0 1 .506-.2.684.684 0 0 1 .441.143.634.634 0 0 1 .232.388.688.688 0 0 1 .015.181v2.078l2.17-2.477a1.535 1.535 0 0 1 .263-.236.519.519 0 0 1 .287-.077.708.708 0 0 1 .414.128.512.512 0 0 1 .23.335s0 .025.01.053a.218.218 0 0 0 0 .057.531.531 0 0 1-.064.26 1.262 1.262 0 0 1-.164.229l-1.42 1.539 1.679 2.641.051.08a1.39 1.39 0 0 1 .2.4s0 .022.01.042a.38.38 0 0 0 0 .045.624.624 0 0 1-.207.527.807.807 0 0 1-.5.16.705.705 0 0 1-.345-.074.927.927 0 0 1-.271-.3l-1.592-2.544-.758.785.007 1.421a.725.725 0 0 1-.189.516.671.671 0 0 1-.507.2.71.71 0 0 1-.443-.14.646.646 0 0 1-.232-.389.845.845 0 0 1-.013-.182z" transform="translate(-67.944 -319.759)" style="fill:#fac800;stroke:transparent;stroke-miterlimit:10"/>
</svg>
