<svg width="24" height="24" viewBox="0 0 24 24" fill="none" xmlns="http://www.w3.org/2000/svg">
<path d="M3.59928 14.716V15.031H3.91431H17.3698H17.6849V14.716V6.80347V6.48845H17.3698H3.91431H3.59928V6.80347V14.716ZM17.5222 15.3143H3.76192C3.51501 15.3143 3.31502 15.1141 3.31502 14.8682V6.65125C3.31502 6.40541 3.51501 6.20516 3.76192 6.20516H17.5222C17.7691 6.20516 17.9691 6.40541 17.9691 6.65125V14.8682C17.9691 15.1141 17.7691 15.3143 17.5222 15.3143Z" fill="#838383" stroke="#838383" stroke-width="0.63005"/>
<path d="M5.31512 16.4179V16.7329H5.63014H19.0857H19.4007V16.4179V8.50535V8.19032H19.0857H17.827C17.7477 8.19032 17.6849 8.12707 17.6849 8.04868C17.6849 7.97029 17.7477 7.90704 17.827 7.90704H19.2381C19.485 7.90704 19.685 8.10729 19.685 8.35312V16.5701C19.685 16.816 19.485 17.0162 19.2381 17.0162H5.47776C5.23084 17.0162 5.03086 16.816 5.03086 16.5701V15.1727C5.03086 15.0943 5.0937 15.0311 5.17299 15.0311C5.25228 15.0311 5.31512 15.0943 5.31512 15.1727V16.4179Z" fill="#838383" stroke="#838383" stroke-width="0.63005"/>
<path d="M15.7728 13.1162H10.3784C10.2992 13.1162 10.2363 13.0529 10.2363 12.9745C10.2363 12.8961 10.2992 12.8329 10.3784 12.8329H15.7728C15.8521 12.8329 15.915 12.8961 15.915 12.9745C15.915 13.0529 15.8521 13.1162 15.7728 13.1162Z" fill="#838383" stroke="#838383" stroke-width="0.63005"/>
<path d="M13.609 11.0216H10.3784C10.2991 11.0216 10.2363 10.9584 10.2363 10.88C10.2363 10.8016 10.2991 10.7383 10.3784 10.7383H13.609C13.6883 10.7383 13.7511 10.8016 13.7511 10.88C13.7511 10.9584 13.6883 11.0216 13.609 11.0216Z" fill="#838383" stroke="#838383" stroke-width="0.63005"/>
<path d="M13.609 9.34718H10.3784C10.2991 9.34718 10.2363 9.28392 10.2363 9.20554C10.2363 9.12715 10.2991 9.0639 10.3784 9.0639H13.609C13.6883 9.0639 13.7511 9.12715 13.7511 9.20554C13.7511 9.28392 13.6883 9.34718 13.609 9.34718Z" fill="#838383" stroke="#838383" stroke-width="0.63005"/>
<path d="M8.12926 13.1162H5.41985C5.34057 13.1162 5.27772 13.0529 5.27772 12.9745C5.27772 12.8961 5.34057 12.8329 5.41985 12.8329H8.12926C8.20854 12.8329 8.27138 12.8961 8.27138 12.9745C8.27138 13.0516 8.20686 13.1162 8.12926 13.1162Z" fill="#838383" stroke="#838383" stroke-width="0.63005"/>
<path d="M5.55894 10.5847V10.8997H5.87396H7.66905H7.98408V10.5847V8.99852V8.68349H7.66905H5.87396H5.55894V8.99852V10.5847ZM8.12926 11.183H5.41985C5.34056 11.183 5.27772 11.1198 5.27772 11.0414V8.54185C5.27772 8.46345 5.34056 8.4002 5.41985 8.4002H8.12926C8.20854 8.4002 8.27138 8.46345 8.27138 8.54185V11.0414C8.27138 11.1184 8.20686 11.183 8.12926 11.183Z" fill="#838383" stroke="#838383" stroke-width="0.63005"/>
</svg>
