<svg width="24" height="24" viewBox="0 0 24 24" fill="none" xmlns="http://www.w3.org/2000/svg">
<path d="M4.22933 15.9702V16.2852H4.54436H17.9999H18.3149V15.9702V7.43354V7.11852H17.9999H4.54436H4.22933V7.43354V15.9702ZM18.1523 16.5685H4.39197C4.14506 16.5685 3.94508 16.3683 3.94508 16.1224V7.28132C3.94508 7.03548 4.14506 6.83523 4.39197 6.83523H18.1523C18.3992 6.83523 18.5992 7.03548 18.5992 7.28132V16.1224C18.5992 16.3683 18.3992 16.5685 18.1523 16.5685Z" fill="#838383" stroke="#838383" stroke-width="0.63005"/>
<path d="M6.1646 11.9607V12.2757H6.47963H7.74137H8.0564V11.9607V11.4431V11.1281H7.74137H6.47963H6.1646V11.4431V11.9607ZM8.19852 12.559H6.02248C5.94319 12.559 5.88035 12.4957 5.88035 12.4173V10.9864C5.88035 10.908 5.94319 10.8448 6.02248 10.8448H8.19852C8.27781 10.8448 8.34065 10.908 8.34065 10.9864V12.4173C8.34065 12.4957 8.27781 12.559 8.19852 12.559Z" fill="#838383" stroke="#838383" stroke-width="0.63005"/>
<path d="M18.457 14.8058H4.10852C4.02923 14.8058 3.96639 14.7425 3.96639 14.6641C3.96639 14.5857 4.02923 14.5225 4.10852 14.5225H18.457C18.5363 14.5225 18.5992 14.5857 18.5992 14.6641C18.5992 14.7425 18.5363 14.8058 18.457 14.8058Z" fill="#838383" stroke="#838383" stroke-width="0.63005"/>
</svg>
