<svg width="24" height="24" viewBox="0 0 24 24" fill="none" xmlns="http://www.w3.org/2000/svg">
<g clip-path="url(#clip0)">
<path d="M18.3333 16.6667H5.33333C2.94026 16.6667 1 14.7264 1 12.3333C1 9.94026 2.94026 8 5.33333 8H18.3333C20.7264 8 22.6667 9.94026 22.6667 12.3333C22.6667 14.7264 20.7264 16.6667 18.3333 16.6667Z" fill="#FFEA00"/>
<path d="M6.60084 10.0593C5.29466 10.0593 4.2356 10.8957 4.2356 11.9276C4.2356 12.5467 4.61781 13.0952 5.20505 13.4347L4.9267 14.4747C4.90023 14.5745 5.01156 14.654 5.0971 14.5963L6.30484 13.7809C6.40192 13.7904 6.50036 13.7959 6.60084 13.7959C7.90702 13.7959 8.96608 12.9595 8.96608 11.9276C8.96608 10.8957 7.90634 10.0593 6.60084 10.0593Z" fill="black"/>
<path d="M11.1955 13.447V14.5977H10.3754V10.354H10.9538L11.055 10.6235C11.2288 10.4497 11.4929 10.2643 11.9192 10.2643C12.7217 10.2643 13.1039 10.8652 13.0978 11.836C13.0978 12.8523 12.5085 13.5033 11.6667 13.5033C11.5037 13.5026 11.3802 13.4918 11.1955 13.447ZM11.1955 11.039V12.8747C11.2403 12.8801 11.353 12.8916 11.4596 12.8916C12.0435 12.8916 12.2682 12.4816 12.2682 11.8366C12.2682 11.2698 12.1168 10.9276 11.6504 10.9276C11.4983 10.9263 11.3299 10.9711 11.1955 11.039Z" fill="black"/>
<path d="M14.8351 11.5495H15.3008V11.4483C15.3008 11.1116 15.11 10.9541 14.7788 10.9541C14.5262 10.9541 14.2003 11.0267 13.9369 11.1564L13.7122 10.6065C14.0041 10.4042 14.4529 10.2643 14.8514 10.2643C15.6375 10.2643 16.0639 10.6798 16.0639 11.4714V13.4191H15.4855L15.4013 13.1612C15.07 13.4028 14.7672 13.5033 14.4923 13.5033C13.8914 13.5033 13.5547 13.1442 13.5547 12.5379C13.5554 11.8916 14.0041 11.5495 14.8351 11.5495ZM15.3008 12.633V12.0715H14.9247C14.5038 12.0715 14.2906 12.2229 14.2906 12.5264C14.2906 12.7565 14.4088 12.8686 14.6498 12.8686C14.8745 12.8686 15.1603 12.7565 15.3008 12.633Z" fill="black"/>
<path d="M18.4713 13.104C18.1848 13.867 17.8427 14.423 17.343 14.7319L16.8379 14.2662C17.1299 14.0137 17.3376 13.7665 17.5168 13.4352L16.4279 10.4658L17.2419 10.2472L17.9377 12.6552L18.6282 10.2357L19.4306 10.4604L18.4713 13.104Z" fill="black"/>
</g>
<defs>
<clipPath id="clip0">
<rect width="21.6667" height="8.66667" fill="white" transform="translate(1 8)"/>
</clipPath>
</defs>
</svg>
